<?xml version="1.0" encoding="iso-8859-1"?>
<!-- Generator: Adobe Illustrator 19.0.0, SVG Export Plug-In . SVG Version: 6.00 Build 0)  -->
<svg version="1.1" id="Capa_1" xmlns="http://www.w3.org/2000/svg" xmlns:xlink="http://www.w3.org/1999/xlink" x="0px" y="0px"
	 viewBox="0 0 512.007 512.007" style="enable-background:new 0 0 512.007 512.007;" xml:space="preserve">
<g>
	<g>
		<path fill="#ffdb4d" d="M263.379,56.912c-1.704-4.08-6.416-5.992-10.472-4.288l-248,104c-4.08,1.712-5.992,6.4-4.28,10.472
			c1.28,3.064,4.248,4.912,7.376,4.912c1.032,0,2.088-0.2,3.096-0.624l248-104C263.179,65.672,265.091,60.984,263.379,56.912z"/>
	</g>
</g>
<g>
	<g>
		<path fill="#ffdb4d" d="M507.099,156.624l-248-104c-4.072-1.712-8.768,0.216-10.472,4.288c-1.712,4.072,0.2,8.76,4.28,10.472l248,104
			c1.008,0.424,2.064,0.624,3.096,0.624c3.128,0,6.096-1.84,7.376-4.912C513.091,163.024,511.179,158.336,507.099,156.624z"/>
	</g>
</g>
<g>
	<g>
		<path fill="#ffdb4d" d="M263.379,88.912c-1.704-4.072-6.416-5.984-10.472-4.288l-248,104c-4.08,1.712-5.992,6.4-4.28,10.472
			c1.28,3.064,4.248,4.912,7.376,4.912c1.032,0,2.088-0.2,3.096-0.624l248-104C263.179,97.672,265.091,92.984,263.379,88.912z"/>
	</g>
</g>
<g>
	<g>
		<path fill="#ffdb4d" d="M507.099,188.624l-248-104c-4.072-1.704-8.768,0.216-10.472,4.288c-1.712,4.072,0.2,8.76,4.28,10.472l248,104
			c1.008,0.424,2.064,0.624,3.096,0.624c3.128,0,6.096-1.84,7.376-4.912C513.091,195.024,511.179,190.336,507.099,188.624z"/>
	</g>
</g>
<g>
	<g>
		<path fill="#ffdb4d" d="M8.003,156.008c-4.424,0-8,3.584-8,8v32c0,4.416,3.576,8,8,8s8-3.584,8-8v-32
			C16.003,159.592,12.427,156.008,8.003,156.008z"/>
	</g>
</g>
<g>
	<g>
		<path fill="#ffdb4d" d="M504.003,156.008c-4.424,0-8,3.584-8,8v32c0,4.416,3.576,8,8,8s8-3.584,8-8v-32
			C512.003,159.592,508.427,156.008,504.003,156.008z"/>
	</g>
</g>
<g>
	<g>
		<path fill="#ffdb4d" d="M48.003,171.232c-4.424,0-8,3.584-8,8v272.776c0,4.424,3.576,8,8,8s8-3.576,8-8V179.232
			C56.003,174.816,52.427,171.232,48.003,171.232z"/>
	</g>
</g>
<g>
	<g>
		<path fill="#ffdb4d" d="M464.003,171.232c-4.424,0-8,3.584-8,8v272.776c0,4.424,3.576,8,8,8s8-3.576,8-8V179.232
			C472.003,174.816,468.427,171.232,464.003,171.232z"/>
	</g>
</g>
<g>
	<g>
		<path fill="#ffdb4d" d="M504.003,444.008h-496c-4.424,0-8,3.576-8,8s3.576,8,8,8h496c4.424,0,8-3.576,8-8S508.427,444.008,504.003,444.008z"/>
	</g>
</g>
<g>
	<g>
		<path fill="#ffdb4d" d="M416.003,196.008h-320c-4.424,0-8,3.584-8,8v248c0,4.424,3.576,8,8,8s8-3.576,8-8v-240h304v240c0,4.424,3.576,8,8,8
			s8-3.576,8-8v-248C424.003,199.592,420.427,196.008,416.003,196.008z"/>
	</g>
</g>
<g>
	<g>
		<path fill="#ffdb4d" d="M416.003,228.008h-320c-4.424,0-8,3.584-8,8s3.576,8,8,8h320c4.424,0,8-3.584,8-8S420.427,228.008,416.003,228.008z"/>
	</g>
</g>
<g>
	<g>
		<path fill="#ffdb4d" d="M416.003,260.008h-320c-4.424,0-8,3.584-8,8c0,4.424,3.576,8,8,8h320c4.424,0,8-3.576,8-8
			C424.003,263.592,420.427,260.008,416.003,260.008z"/>
	</g>
</g>
<g>
	<g>
		<path fill="#ffdb4d" d="M144.003,412.008c-4.424,0-8,3.576-8,8v32c0,4.424,3.576,8,8,8s8-3.576,8-8v-32
			C152.003,415.584,148.427,412.008,144.003,412.008z"/>
	</g>
</g>
<g>
	<g>
		<path fill="#ffdb4d" d="M184.003,412.008c-4.424,0-8,3.576-8,8v32c0,4.424,3.576,8,8,8s8-3.576,8-8v-32
			C192.003,415.584,188.427,412.008,184.003,412.008z"/>
	</g>
</g>
<g>
	<g>
		<path fill="#ffdb4d" d="M328.003,412.008c-4.424,0-8,3.576-8,8v32c0,4.424,3.576,8,8,8s8-3.576,8-8v-32
			C336.003,415.584,332.427,412.008,328.003,412.008z"/>
	</g>
</g>
<g>
	<g>
		<path fill="#ffdb4d" d="M368.003,412.008c-4.424,0-8,3.576-8,8v32c0,4.424,3.576,8,8,8s8-3.576,8-8v-32
			C376.003,415.584,372.427,412.008,368.003,412.008z"/>
	</g>
</g>
<g>
	<g>
		<path fill="#ffdb4d" d="M368.003,412.008h-224c-4.424,0-8,3.576-8,8s3.576,8,8,8h224c4.424,0,8-3.576,8-8S372.427,412.008,368.003,412.008z"/>
	</g>
</g>
<g>
	<g>
		<path fill="#ffdb4d" d="M144.003,348.008c-4.424,0-8,3.576-8,8v64c0,4.424,3.576,8,8,8s8-3.576,8-8v-64
			C152.003,351.584,148.427,348.008,144.003,348.008z"/>
	</g>
</g>
<g>
	<g>
		<path fill="#ffdb4d" d="M368.003,348.016c-4.424,0-8,3.576-8,8v63.992c0,4.424,3.576,8,8,8s8-3.576,8-8v-63.992
			C376.003,351.592,372.427,348.016,368.003,348.016z"/>
	</g>
</g>
<g>
	<g>
		<path fill="#ffdb4d" d="M232.003,372.008c-4.424,0-8,3.576-8,8v8c0,4.424,3.576,8,8,8s8-3.576,8-8v-8
			C240.003,375.584,236.427,372.008,232.003,372.008z"/>
	</g>
</g>
<g>
	<g>
		<path fill="#ffdb4d" d="M256.003,372.008c-4.424,0-8,3.576-8,8v8c0,4.424,3.576,8,8,8s8-3.576,8-8v-8
			C264.003,375.584,260.427,372.008,256.003,372.008z"/>
	</g>
</g>
<g>
	<g>
		<path fill="#ffdb4d" d="M280.003,372.008c-4.424,0-8,3.576-8,8v8c0,4.424,3.576,8,8,8s8-3.576,8-8v-8
			C288.003,375.584,284.427,372.008,280.003,372.008z"/>
	</g>
</g>
<g>
	<g>
		<path fill="#ffdb4d" d="M168.995,260.072c-4.4-0.568-8.384,2.56-8.928,6.944l-8,64c-0.552,4.384,2.56,8.384,6.944,8.928
			c0.336,0.04,0.672,0.064,1,0.064c3.976,0,7.424-2.96,7.928-7.008l8-64C176.491,264.616,173.379,260.616,168.995,260.072z"/>
	</g>
</g>
<g>
	<g>
		<path fill="#ffdb4d" d="M359.939,331.016l-8-64c-0.544-4.384-4.496-7.512-8.928-6.944c-4.384,0.544-7.488,4.544-6.944,8.928l8,64
			c0.504,4.048,3.952,7.008,7.928,7.008c0.328,0,0.664-0.024,1-0.064C357.379,339.4,360.483,335.4,359.939,331.016z"/>
	</g>
</g>
<g>
	<g>
		<path fill="#ffdb4d" d="M215.931,386.096c-1.456-19.864-25.488-30.088-35.928-30.088c-11.032,0-20,8.968-20,20c0,11.032,8.968,20,20,20h28
			c0.064,0,0.12,0,0.16,0c4.416,0,8-3.576,7.992-8C216.155,387.352,216.083,386.712,215.931,386.096z M180.003,380.008
			c-2.2,0-4-1.8-4-4s1.8-4,4-4c2.768,0,11.232,2.952,16.216,8H180.003z"/>
	</g>
</g>
<g>
	<g>
		<path fill="#ffdb4d" d="M332.003,356.008c-10.768,0-36,10.888-36,32c0,4.424,3.576,8,8,8h28c11.032,0,20-8.968,20-20
			C352.003,364.976,343.035,356.008,332.003,356.008z M332.003,380.008h-16.216c4.984-5.048,13.448-8,16.216-8c2.2,0,4,1.8,4,4
			S334.203,380.008,332.003,380.008z"/>
	</g>
</g>
<g>
	<g>
		<path fill="#ffdb4d" d="M164.443,325.352c-3.688-2.448-8.656-1.464-11.096,2.216l-16,24c-2.456,3.68-1.464,8.64,2.216,11.096
			c1.368,0.904,2.912,1.344,4.432,1.344c2.584,0,5.128-1.248,6.664-3.56l16-24C169.115,332.768,168.123,327.808,164.443,325.352z"/>
	</g>
</g>
<g>
	<g>
		<path fill="#ffdb4d" d="M374.659,351.576l-16-24.008c-2.448-3.68-7.416-4.664-11.096-2.216c-3.672,2.456-4.672,7.416-2.216,11.096l16,24.008
			c1.536,2.312,4.08,3.56,6.664,3.56c1.52,0,3.064-0.44,4.432-1.344C376.115,360.216,377.115,355.256,374.659,351.576z"/>
	</g>
</g>
<g>
	<g>
		<path fill="#ffdb4d" d="M352.003,324.008h-192c-4.424,0-8,3.576-8,8s3.576,8,8,8h192c4.424,0,8-3.576,8-8S356.427,324.008,352.003,324.008z"/>
	</g>
</g>
<g>
	<g>
		<path fill="#ffdb4d" d="M368.003,292.008h-20c-4.424,0-8,3.576-8,8s3.576,8,8,8h20c4.424,0,8-3.576,8-8S372.427,292.008,368.003,292.008z"/>
	</g>
</g>
<g>
	<g>
		<path fill="#ffdb4d" d="M164.003,292.008h-20c-4.424,0-8,3.576-8,8s3.576,8,8,8h20c4.424,0,8-3.576,8-8S168.427,292.008,164.003,292.008z"/>
	</g>
</g>
<g>
</g>
<g>
</g>
<g>
</g>
<g>
</g>
<g>
</g>
<g>
</g>
<g>
</g>
<g>
</g>
<g>
</g>
<g>
</g>
<g>
</g>
<g>
</g>
<g>
</g>
<g>
</g>
<g>
</g>
</svg>
